<svg width="24" height="24" viewBox="0 0 24 24" fill="none" xmlns="http://www.w3.org/2000/svg">
<path d="M5.69439 6.42985C11.0209 5.09261 17.643 5.1746 19.1735 6.91738C20.704 8.66016 20.6724 14.4876 18.8834 16.0866C17.0954 17.6856 9.33039 17.8376 6.87039 16.0866C4.27139 14.2356 5.77939 8.54161 5.69439 5.09261C5.74539 3.16261 3.65039 2.84961 3.65039 2.84961" stroke="#F84E8C" stroke-width="1.5" stroke-linecap="round" stroke-linejoin="round"/>
<path d="M14.1562 10.7188H16.9293" stroke="#F84E8C" stroke-width="1.5" stroke-linecap="round" stroke-linejoin="round"/>
<path fill-rule="evenodd" clip-rule="evenodd" d="M7.26375 20.1268C7.56375 20.1268 7.80775 20.3708 7.80775 20.6708C7.80775 20.9718 7.56375 21.2158 7.26375 21.2158C6.96275 21.2158 6.71875 20.9718 6.71875 20.6708C6.71875 20.3708 6.96275 20.1268 7.26375 20.1268Z" fill="black" stroke="#F84E8C" stroke-width="1.5" stroke-linecap="round" stroke-linejoin="round"/>
<path fill-rule="evenodd" clip-rule="evenodd" d="M17.5948 20.1268C17.8958 20.1268 18.1398 20.3708 18.1398 20.6708C18.1398 20.9718 17.8958 21.2158 17.5948 21.2158C17.2948 21.2158 17.0508 20.9718 17.0508 20.6708C17.0508 20.3708 17.2948 20.1268 17.5948 20.1268Z" fill="black" stroke="#F84E8C" stroke-width="1.5" stroke-linecap="round" stroke-linejoin="round"/>
</svg>
