<svg width="14" height="15" viewBox="0 0 14 15" fill="none" xmlns="http://www.w3.org/2000/svg">
<path fill-rule="evenodd" clip-rule="evenodd" d="M1.90676 2.37681C1.9081 2.37681 1.87476 2.41147 1.83276 2.45281C1.67143 2.60947 1.33743 2.93547 1.33406 3.61747C1.32876 4.57147 1.9561 6.34281 4.97676 9.36281C7.98343 12.3681 9.7521 13.0028 10.7081 13.0028H10.7221C11.4041 12.9995 11.7294 12.6648 11.8868 12.5041C11.9348 12.4548 11.9734 12.4188 12.0008 12.3961C12.6648 11.7281 13.0048 11.2308 13.0015 10.9121C12.9968 10.5868 12.5921 10.2021 12.0328 9.67014C11.8548 9.50081 11.6614 9.31681 11.4574 9.11281C10.9288 8.58547 10.6668 8.67547 10.0908 8.87814C9.2941 9.15747 8.20076 9.53747 6.5021 7.83814C4.80076 6.13814 5.18143 5.04614 5.4601 4.24947C5.66143 3.67347 5.75343 3.41081 5.2241 2.88147C5.01676 2.67481 4.83076 2.47881 4.65943 2.29881C4.13076 1.74281 3.74943 1.34081 3.4261 1.33614H3.42076C3.10143 1.33614 2.60543 1.67747 1.90343 2.37947C1.90543 2.37747 1.9061 2.37681 1.90676 2.37681ZM10.7088 14.0028C9.04743 14.0028 6.88143 12.6801 4.2701 10.0701C1.64876 7.44947 0.324096 5.27681 0.33404 3.61214C0.340096 2.51214 0.916763 1.94881 1.13343 1.73747C1.14476 1.72347 1.18343 1.68547 1.19676 1.67214C2.15276 0.715473 2.79743 0.328806 3.43876 0.336037C4.18343 0.346139 4.71343 0.903473 5.3841 1.60947C5.5501 1.78414 5.7301 1.97414 5.93076 2.17414C6.9041 3.14747 6.62676 3.94147 6.4041 4.57881C6.16143 5.27414 5.95143 5.87414 7.20876 7.13147C8.46743 8.38881 9.06743 8.17881 9.7601 7.93414C10.3981 7.71147 11.1901 7.43281 12.1648 8.40614C12.3621 8.60347 12.5494 8.78147 12.7221 8.94614C13.4314 9.62014 13.9914 10.1528 14.0009 10.8995C14.0088 11.5361 13.6221 12.1848 12.6674 13.1401L12.2448 12.8535L12.6021 13.2028C12.3908 13.4195 11.8281 13.9968 10.7274 14.0028H10.7088Z" fill="#AAB2BD"/>
</svg>
