<svg width="15" height="14" viewBox="0 0 15 14" fill="none" xmlns="http://www.w3.org/2000/svg">
<path fill-rule="evenodd" clip-rule="evenodd" d="M11.1053 0.332031C13.3253 0.332031 14.9993 2.14336 14.9993 4.54536V9.12403C14.9993 10.3534 14.5647 11.464 13.7747 12.252C13.066 12.958 12.1467 13.332 11.116 13.332H4.54735C3.51868 13.332 2.60002 12.9587 1.89068 12.252C1.10068 11.464 0.666016 10.3534 0.666016 9.12403V4.54536C0.666016 2.14336 2.34002 0.332031 4.56002 0.332031H11.1053ZM11.1053 1.33203H4.56002C2.88335 1.33203 1.66602 2.68336 1.66602 4.54536V9.12403C1.66602 10.086 1.99668 10.9454 2.59668 11.5434C3.11402 12.06 3.78935 12.332 4.54935 12.332H11.1053C11.1067 12.3307 11.112 12.332 11.116 12.332C11.8767 12.332 12.5513 12.06 13.0687 11.5434C13.6693 10.9454 13.9993 10.086 13.9993 9.12403V4.54536C13.9993 2.68336 12.782 1.33203 11.1053 1.33203ZM12.156 4.4179C12.33 4.6319 12.2973 4.94656 12.0833 5.12123L9.12068 7.52923C8.74602 7.82656 8.29802 7.97523 7.85068 7.97523C7.40468 7.97523 6.96002 7.8279 6.58802 7.53323L3.59802 5.12256C3.38268 4.94923 3.34935 4.6339 3.52202 4.41923C3.69602 4.20523 4.01068 4.17123 4.22535 4.3439L7.21268 6.7519C7.58802 7.04923 8.11668 7.04923 8.49468 6.74923L11.452 4.34523C11.6667 4.1699 11.9813 4.20323 12.156 4.4179Z" fill="#AAB2BD"/>
</svg>
