<svg width="12" height="14" viewBox="0 0 12 14" fill="none" xmlns="http://www.w3.org/2000/svg">
<path fill-rule="evenodd" clip-rule="evenodd" d="M6.16602 0.335938C9.19868 0.335938 11.666 2.82194 11.666 5.87794C11.666 9.6346 7.36202 13.3359 6.16602 13.3359C4.97002 13.3359 0.666016 9.6346 0.666016 5.87794C0.666016 2.82194 3.13335 0.335938 6.16602 0.335938ZM6.16602 1.33594C3.68468 1.33594 1.66602 3.37394 1.66602 5.87794C1.66602 9.06394 5.41535 12.1679 6.16602 12.3333C6.91668 12.1673 10.666 9.06327 10.666 5.87794C10.666 3.37394 8.64735 1.33594 6.16602 1.33594ZM6.16668 3.66927C7.36135 3.66927 8.33335 4.64127 8.33335 5.8366C8.33335 7.03127 7.36135 8.0026 6.16668 8.0026C4.97202 8.0026 4.00002 7.03127 4.00002 5.8366C4.00002 4.64127 4.97202 3.66927 6.16668 3.66927ZM6.16668 4.66927C5.52335 4.66927 5.00002 5.1926 5.00002 5.8366C5.00002 6.47994 5.52335 7.0026 6.16668 7.0026C6.81002 7.0026 7.33335 6.47994 7.33335 5.8366C7.33335 5.1926 6.81002 4.66927 6.16668 4.66927Z" fill="#AAB2BD"/>
</svg>
