<svg width="12" height="14" viewBox="0 0 12 14" fill="none" xmlns="http://www.w3.org/2000/svg">
<path fill-rule="evenodd" clip-rule="evenodd" d="M11.226 11.1315C11.226 13.3289 8.21268 13.5829 5.94668 13.5829L5.78453 13.5827C4.34082 13.5792 0.666016 13.4881 0.666016 11.1182C0.666016 8.96571 3.55825 8.67805 5.80701 8.6672L6.10883 8.66701C7.55245 8.67052 11.226 8.76167 11.226 11.1315ZM5.94668 9.66687C3.10602 9.66687 1.66602 10.1549 1.66602 11.1182C1.66602 12.0902 3.10602 12.5829 5.94668 12.5829C8.78668 12.5829 10.226 12.0949 10.226 11.1315C10.226 10.1595 8.78668 9.66687 5.94668 9.66687ZM5.94668 0.335938C7.89868 0.335938 9.48602 1.92394 9.48602 3.87594C9.48602 5.82794 7.89868 7.41527 5.94668 7.41527H5.92535C3.97735 7.40927 2.39935 5.8206 2.40599 3.87394C2.40599 1.92394 3.99402 0.335938 5.94668 0.335938ZM5.94668 1.28794C4.51935 1.28794 3.358 2.4486 3.358 3.87594C3.35335 5.2986 4.50602 6.4586 5.92735 6.46394L5.94668 6.93994V6.46394C7.37335 6.46394 8.53402 5.3026 8.53402 3.87594C8.53402 2.4486 7.37335 1.28794 5.94668 1.28794Z" fill="#AAB2BD"/>
</svg>
