<svg width="34" height="34" viewBox="0 0 34 34" fill="none" xmlns="http://www.w3.org/2000/svg">
<rect width="34" height="34" rx="5" fill="#F8CC77"/>
<path fill-rule="evenodd" clip-rule="evenodd" d="M17 16C17.7956 16 18.5587 15.6839 19.1213 15.1213C19.6839 14.5587 20 13.7956 20 13C20 12.2044 19.6839 11.4413 19.1213 10.8787C18.5587 10.3161 17.7956 10 17 10C16.2044 10 15.4413 10.3161 14.8787 10.8787C14.3161 11.4413 14 12.2044 14 13C14 13.7956 14.3161 14.5587 14.8787 15.1213C15.4413 15.6839 16.2044 16 17 16ZM10 25C10 24.0807 10.1811 23.1705 10.5328 22.3212C10.8846 21.4719 11.4002 20.7003 12.0503 20.0503C12.7003 19.4002 13.4719 18.8846 14.3212 18.5328C15.1705 18.1811 16.0807 18 17 18C17.9193 18 18.8295 18.1811 19.6788 18.5328C20.5281 18.8846 21.2997 19.4002 21.9497 20.0503C22.5998 20.7003 23.1154 21.4719 23.4672 22.3212C23.8189 23.1705 24 24.0807 24 25H10Z" fill="white"/>
</svg>
